<svg xmlns="http://www.w3.org/2000/svg" viewBox="0 0 333333 333333" shape-rendering="geometricPrecision" text-rendering="geometricPrecision" image-rendering="optimizeQuality" fill-rule="evenodd" clip-rule="evenodd"><path d="M166667 0c92047 0 166667 74619 166667 166667 0 92047-74619 166667-166667 166667C74620 333334 0 258715 0 166667 0 74620 74619 0 166667 0zm20199 154743l-11554 11288 11916 12196c1930-807 4048-1254 6271-1254 8979 0 16258 7279 16258 16258s-7279 16257-16258 16257-16258-7279-16258-16257c0-2296 477-4480 1335-6460l-11961-12243-12131 11852c1030 2135 1608 4528 1608 7057 0 8979-7279 16257-16258 16257s-16257-7278-16257-16257 7278-16258 16257-16258c1983 0 3882 356 5639 1005l12645-12354-10955-11213c-2203 1114-4693 1743-7330 1743-8979 0-16257-7279-16257-16258s7278-16258 16257-16258 16258 7279 16258 16258c0 1869-317 3665-897 5337l11621 11894 11608-11341c-762-1883-1183-3940-1183-6096 0-8979 7279-16258 16258-16258s16258 7279 16258 16258-7279 16257-16258 16257c-2363 0-4607-505-6633-1411zm-20199-95282c59208 0 107206 47998 107206 107206s-47998 107206-107206 107206S59461 225875 59461 166667 107459 59461 166667 59461z"/></svg>